<svg version="1.1" viewBox="0.0 0.0 131.9291338582677 160.38320209973753" fill="none" stroke="none" stroke-linecap="square" stroke-miterlimit="10" xmlns:xlink="http://www.w3.org/1999/xlink" xmlns="http://www.w3.org/2000/svg"><clipPath id="p.0"><path d="m0 0l131.92914 0l0 160.38321l-131.92914 0l0 -160.38321z" clip-rule="nonzero"/></clipPath><g clip-path="url(#p.0)"><path fill="#000000" fill-opacity="0.0" d="m0 0l131.92914 0l0 160.38321l-131.92914 0z" fill-rule="evenodd"/><path fill="#000000" fill-opacity="0.0" d="m0 0l144.85039 0l0 159.87401l-144.85039 0z" fill-rule="evenodd"/><path fill="#000000" d="m121.1752 127.255005q0 1.25 -0.125 1.875q-0.625 0.25 -1.0 0.6875q-0.375 0.4375 -1.25 0.3125q-0.25 1.875 -1.25 3.125q-1.0 1.25 -2.0625 2.3125q-1.0625 1.0625 -2.0625 2.25q-1.0 1.1875 -1.25 3.0625q-1.875 1.0 -3.6875 2.6875q-1.8125 1.6875 -3.1875 2.3125q-1.0 0.5 -2.125 0.8125q-1.125 0.3125 -2.25 0.8125q-3.625 1.625 -7.4375 3.375q-3.8125 1.75 -7.9375 1.75l-0.875 0q-0.5 0.5 -1.25 0.6875q-0.75 0.1875 -1.5 0.3125q-0.75 0.125 -1.5 0.375q-0.75 0.25 -1.125 0.75q-1.375 -0.5 -3.0 -0.5l-0.875 0q-2.125 0.5 -4.0 0.75q-1.875 0.25 -4.0 0.25q-3.7500038 0 -7.500004 -0.5q-3.75 -0.5 -7.5 -0.875q-2.375 -1.875 -3.875 -4.6875q-1.5 -2.8125 -1.5 -5.9375q0 -2.375 1.0 -4.4375q1.0 -2.0625 2.625 -3.6875l0.375 0q1.125 0 2.3125 -0.5q1.1875 -0.5 2.3125 -0.5q1.25 0 2.0625 1.0q0.8125 1.0 1.25 2.375q0.4375 1.375 0.5625 2.8125q0.125 1.4375 0.125 2.3125q1.375 0.625 2.9375 0.75q1.5625038 0.125 3.1875038 0.125q1.625 0 3.625 -0.1875q2.0 -0.1875 4.0625 -0.625q2.0625 -0.4375 4.0 -1.0625q1.9375 -0.625 3.3125 -1.625q6.875 -0.625 12.125 -3.125q5.25 -2.5 11.125 -5.875q0.25 -1.375 1.0625 -2.1875q0.8125 -0.8125 0.8125 -2.4375q0 -0.25 -0.0625 -0.5625q-0.0625 -0.3125 -0.0625 -0.5625q-2.5 -3.125 -5.1875 -5.5q-2.6875 -2.375 -6.9375 -3.125q-0.5 -1.125 -1.625 -1.6875q-1.125 -0.5625 -2.375 -1.0625q-1.25 -0.5 -2.375 -1.0625q-1.125 -0.5625 -1.625 -1.9375q-3.375 -0.625 -6.9375 -1.5625q-3.5625 -0.9375 -6.0625 -3.4375q-2.0 -0.125 -3.8125 -0.8125q-1.8125 -0.6875 -3.5625 -1.375q-1.7500038 -0.6875 -3.6250038 -1.25q-1.875 -0.5625 -3.875 -0.5625q-0.5 -0.875 -1.375 -1.375q-0.875 -0.5 -1.9375 -0.875q-1.0625 -0.375 -2.0 -0.8125q-0.9375 -0.4375 -1.4375 -1.3125q-0.5 0.125 -0.75 0.5q-0.25 0.375 -0.875 0.375l-0.5 0q-0.25 -0.75 -1.0 -1.0625q-0.75 -0.3125 -0.875 -1.3125q-2.25 -0.125 -4.0625 -0.875q-1.8125 -0.75 -3.375 -1.6875q-1.5625 -0.9375 -3.1875 -1.8125q-1.625 -0.875 -3.625 -1.375q-1.25 -1.0 -2.3125 -2.1875q-1.0625 -1.1875 -2.6875 -1.1875q-0.375 0 -1.375 0.25q-0.25 -2.25 -1.875 -3.1875q-1.625 -0.9375 -3.5 -1.6875q-1.25 -3.25 -3.375 -5.75q-2.125 -2.5 -4.625 -4.625q0.25 -0.75 0.25 -1.125q0 -1.25 -0.625 -2.1875q-0.625 -0.9375 -1.375 -1.5625q-1.75 -5.625 -1.75 -11.0q0 -7.5 3.3125 -13.9375q3.3125 -6.4375 10.4375 -9.6875q0.125 -1.0 0.6875 -1.75q0.5625 -0.75 0.6875 -1.75q1.125 0 1.75 -0.5q0.625 -0.5 1.1875 -1.0625q0.5625 -0.5625 1.1875 -1.0625q0.625 -0.5 1.625 -0.625q4.75 -4.125 10.125 -6.6875q5.375 -2.5625 11.0 -5.3125q1.125 -0.5 1.875 -1.875l0.75 0q1.25 0 1.9375 -0.5625q0.6875 -0.5625 2.0625 -0.3125q0.5 -0.75 1.3125 -1.0q0.8125 -0.25 1.625 -0.4375q0.8125 -0.1875 1.5625 -0.5625q0.75 -0.375 1.0 -1.125l0.8750038 0q2.125 0 4.125 -0.6875q2.0 -0.6875 4.0 -1.5625l0.875 0q2.5 0 4.6875 -0.9375q2.1875 -0.9375 4.6875 -1.3125q1.0 -0.25 2.0 -0.125q1.0 0.125 2.0 0.125q0.625 0 1.5 -0.125q0.875 -0.125 1.25 -0.75l0.25 0q0.75 0 0.875 0.5q0.125 0.5 0.75 0.5q0.875 0 1.75 -0.25q0.875 -0.25 1.75 -0.25q3.75 0 7.4375 0.75q3.6875 0.75 7.3125 1.375q0.25 1.5 1.3125 2.125q1.0625 0.625 2.3125 1.125l0 0.5q0 1.0 0.5 1.625q-0.5 1.75 -1.75 2.625q-1.25 0.875 -2.75 1.5q0.625 0.5 0.75 1.375q0.125 0.875 0.125 1.625l0 1.5l-0.625 -0.125q-2.0 0 -2.0 1.875q-1.625 -1.0 -3.5625 -1.25q-1.9375 -0.25 -3.8125 -0.25q-2.5 0 -5.25 0.1875q-2.75 0.1875 -5.375 -0.0625q-1.0 1.25 -2.5 1.8125q-1.5 0.5625 -3.0 0.5625q-1.625 0 -3.125 -0.6875q-1.5 -0.6875 -2.125 -2.0625q-0.625 -0.25 -1.125 -0.25l-1.125 0q-2.0 0 -3.9375 0.4375q-1.9375 0.4375 -3.9375 1.0q-2.0 0.5625 -3.9375 1.125q-1.9375038 0.5625 -3.9375038 0.6875q-0.75 1.0 -2.0 1.375q-1.25 0.375 -2.0 1.375q-2.625 0.5 -4.75 1.6875q-2.125 1.1875 -4.125 2.5625l-3.875 2.625q-1.875 1.25 -4.25 2.125q-1.75 1.875 -3.25 3.0q-1.5 1.125 -3.875 2.0q-1.5 0.5 -1.6875 1.5q-0.1875 1.0 -1.0625 2.0q-0.75 0.875 -1.8125 1.3125q-1.0625 0.4375 -1.8125 1.4375q-0.625 0.875 -0.9375 2.0625q-0.3125 1.1875 -0.6875 2.3125q-0.375 1.125 -0.875 2.1875q-0.5 1.0625 -1.5 1.8125q0 0.5 -0.0625 1.0q-0.0625 0.5 -0.0625 0.875q0 1.75 0.4375 3.5625q0.4375 1.8125 0.5625 3.5625q2.5 4.375 5.875 7.9375q3.375 3.5625 7.25 6.5625q3.875 3.0 8.0625 5.625q4.1875 2.625 8.3125 5.125q1.5 -0.125 2.75 0.3125q1.25 0.4375 2.625 0.5625q1.5 1.125 3.5 1.75l4.000004 1.25q2.0 0.625 3.875 1.4375q1.875 0.8125 3.125 2.1875q0.625 0.125 1.125 0.3125q0.5 0.1875 1.125 0.1875q0.75 0 0.875 -0.5q5.625 2.125 11.0 4.6875q5.375 2.5625 11.375 3.9375q2.375 2.0 5.25 3.5q2.875 1.5 5.75 3.0625q2.875 1.5625 5.5 3.375q2.625 1.8125 4.625 4.3125q0.25 2.375 1.0625 4.5625q0.8125 2.1875 0.8125 4.6875z" fill-rule="nonzero"/></g></svg>